<svg width="33" height="33" viewBox="0 0 33 33" fill="none" xmlns="http://www.w3.org/2000/svg">
<path d="M12.0417 28.1894L2 31L4.81168 20.9622L23.1992 2.67114C23.407 2.45868 23.6552 2.28987 23.9292 2.17462C24.2032 2.05937 24.4974 2 24.7947 2C25.0919 2 25.3862 2.05937 25.6602 2.17462C25.9342 2.28987 26.1824 2.45868 26.3902 2.67114L30.3399 6.64164C30.5491 6.84901 30.7151 7.09571 30.8284 7.36754C30.9417 7.63936 31 7.93091 31 8.22538C31 8.51985 30.9417 8.8114 30.8284 9.08322C30.7151 9.35504 30.5491 9.60175 30.3399 9.80912L12.0417 28.1894Z" fill="#006C98" stroke="#006C98" stroke-width="3" stroke-linecap="round" stroke-linejoin="round"/>
</svg>
